<mxfile host="65bd71144e">
    <diagram id="SFiR6cJLVSuLZU7QCW9r" name="Page-1">
        <mxGraphModel dx="665" dy="371" grid="0" gridSize="1" guides="1" tooltips="1" connect="1" arrows="1" fold="1" page="1" pageScale="1" pageWidth="1100" pageHeight="850" math="0" shadow="0">
            <root>
                <mxCell id="0"/>
                <mxCell id="1" parent="0"/>
                <mxCell id="2" value="&lt;p style=&quot;line-height: 0%;&quot;&gt;Pattern_gen&lt;/p&gt;" style="rounded=0;whiteSpace=wrap;html=1;spacingTop=100;fillColor=#dae8fc;strokeColor=#6c8ebf;" parent="1" vertex="1">
                    <mxGeometry x="105" y="242" width="336" height="117" as="geometry"/>
                </mxCell>
                <mxCell id="41" style="edgeStyle=orthogonalEdgeStyle;html=1;entryX=0;entryY=0.75;entryDx=0;entryDy=0;fontSize=6;endArrow=none;endFill=0;exitX=1;exitY=0.5;exitDx=0;exitDy=0;curved=1;" parent="1" source="3" target="37" edge="1">
                    <mxGeometry relative="1" as="geometry"/>
                </mxCell>
                <mxCell id="3" value="&lt;font style=&quot;font-size: 6px;&quot;&gt;lane_2[0:15]&lt;/font&gt;" style="text;strokeColor=none;fillColor=none;align=center;verticalAlign=middle;rounded=0;whiteSpace=wrap;html=1;flipV=1;flipH=0;" parent="1" vertex="1">
                    <mxGeometry x="309" y="307" width="36" height="10" as="geometry"/>
                </mxCell>
                <mxCell id="40" style="edgeStyle=orthogonalEdgeStyle;html=1;entryX=0;entryY=0.25;entryDx=0;entryDy=0;fontSize=6;endArrow=none;endFill=0;curved=1;exitX=1;exitY=0.75;exitDx=0;exitDy=0;" parent="1" source="4" target="37" edge="1">
                    <mxGeometry relative="1" as="geometry"/>
                </mxCell>
                <mxCell id="4" value="&lt;font style=&quot;font-size: 6px;&quot;&gt;lane_1[0:15]&lt;/font&gt;" style="text;strokeColor=none;fillColor=none;align=center;verticalAlign=middle;rounded=0;whiteSpace=wrap;html=1;flipV=1;flipH=0;" parent="1" vertex="1">
                    <mxGeometry x="309" y="278" width="36" height="10" as="geometry"/>
                </mxCell>
                <mxCell id="9" value="&lt;p style=&quot;line-height: 40%;&quot;&gt;&lt;font style=&quot;font-size: 6px;&quot;&gt;40 bits LFSR_gen_1&lt;br&gt;lane1&lt;br&gt;&lt;/font&gt;&lt;/p&gt;" style="text;strokeColor=none;fillColor=none;align=center;verticalAlign=middle;rounded=0;whiteSpace=wrap;html=1;flipV=1;flipH=1;spacing=0;" parent="1" vertex="1">
                    <mxGeometry x="109" y="276" width="60" height="11" as="geometry"/>
                </mxCell>
                <mxCell id="17" value="&lt;p style=&quot;line-height: 40%;&quot;&gt;&lt;font style=&quot;font-size: 6px;&quot;&gt;40 bits LFSR_gen_2&lt;br&gt;lane2&lt;br&gt;&lt;/font&gt;&lt;/p&gt;" style="text;strokeColor=none;fillColor=none;align=center;verticalAlign=middle;rounded=0;whiteSpace=wrap;html=1;flipV=1;flipH=1;" parent="1" vertex="1">
                    <mxGeometry x="109" y="305" width="60" height="11" as="geometry"/>
                </mxCell>
                <mxCell id="29" value="" style="group" parent="1" vertex="1" connectable="0">
                    <mxGeometry x="174" y="276" width="120" height="14" as="geometry"/>
                </mxCell>
                <mxCell id="10" value="" style="rounded=0;whiteSpace=wrap;html=1;fontSize=6;points=[[0,0,0,0,0],[0,0.21,0,0,0],[0,0.5,0,0,0],[0,0.79,0,0,0],[0,1,0,0,0],[0.33,0,0,0,0],[0.33,1,0,0,0],[0.66,0,0,0,0],[0.66,1,0,0,0],[1,0,0,0,0],[1,0.29,0,0,0],[1,0.5,0,0,0],[1,0.79,0,0,0],[1,1,0,0,0]];" parent="29" vertex="1">
                    <mxGeometry width="120" height="14" as="geometry"/>
                </mxCell>
                <mxCell id="15" style="edgeStyle=none;html=1;exitX=0.33;exitY=0;exitDx=0;exitDy=0;exitPerimeter=0;entryX=0.33;entryY=1;entryDx=0;entryDy=0;entryPerimeter=0;fontSize=6;endArrow=none;endFill=0;" parent="29" source="10" target="10" edge="1">
                    <mxGeometry relative="1" as="geometry"/>
                </mxCell>
                <mxCell id="16" style="edgeStyle=none;html=1;exitX=0.66;exitY=0;exitDx=0;exitDy=0;exitPerimeter=0;entryX=0.66;entryY=1;entryDx=0;entryDy=0;entryPerimeter=0;fontSize=6;endArrow=none;endFill=0;" parent="29" source="10" target="10" edge="1">
                    <mxGeometry relative="1" as="geometry"/>
                </mxCell>
                <mxCell id="21" value="&lt;p style=&quot;line-height: 70%;&quot;&gt;&lt;font style=&quot;font-size: 6px;&quot;&gt;{[16:31]}&lt;/font&gt;&lt;/p&gt;" style="text;strokeColor=none;fillColor=none;align=center;verticalAlign=middle;rounded=0;whiteSpace=wrap;html=1;flipV=0;flipH=0;imageAspect=1;imageAlign=left;imageVerticalAlign=middle;glass=0;" parent="29" vertex="1">
                    <mxGeometry x="48" y="3" width="23" height="8" as="geometry"/>
                </mxCell>
                <mxCell id="114" value="&lt;p style=&quot;line-height: 70%;&quot;&gt;&lt;font style=&quot;font-size: 6px;&quot;&gt;{[32:39],00}&lt;/font&gt;&lt;/p&gt;" style="text;strokeColor=none;fillColor=none;align=center;verticalAlign=middle;rounded=0;whiteSpace=wrap;html=1;flipV=0;flipH=0;imageAspect=1;imageAlign=left;imageVerticalAlign=middle;glass=0;" vertex="1" parent="29">
                    <mxGeometry x="2" y="3" width="36" height="8" as="geometry"/>
                </mxCell>
                <mxCell id="115" value="&lt;p style=&quot;line-height: 70%;&quot;&gt;&lt;font style=&quot;font-size: 6px;&quot;&gt;{[0:15]}&lt;/font&gt;&lt;/p&gt;" style="text;strokeColor=none;fillColor=none;align=center;verticalAlign=middle;rounded=0;whiteSpace=wrap;html=1;flipV=0;flipH=0;imageAspect=1;imageAlign=left;imageVerticalAlign=middle;glass=0;" vertex="1" parent="29">
                    <mxGeometry x="88" y="3" width="23" height="8" as="geometry"/>
                </mxCell>
                <mxCell id="30" value="" style="group" parent="1" vertex="1" connectable="0">
                    <mxGeometry x="174" y="305" width="120" height="14" as="geometry"/>
                </mxCell>
                <mxCell id="31" value="" style="rounded=0;whiteSpace=wrap;html=1;fontSize=6;points=[[0,0,0,0,0],[0,0.21,0,0,0],[0,0.5,0,0,0],[0,0.79,0,0,0],[0,1,0,0,0],[0.33,0,0,0,0],[0.33,1,0,0,0],[0.66,0,0,0,0],[0.66,1,0,0,0],[1,0,0,0,0],[1,0.29,0,0,0],[1,0.5,0,0,0],[1,0.79,0,0,0],[1,1,0,0,0]];" parent="30" vertex="1">
                    <mxGeometry width="120" height="14" as="geometry"/>
                </mxCell>
                <mxCell id="32" style="edgeStyle=none;html=1;exitX=0.33;exitY=0;exitDx=0;exitDy=0;exitPerimeter=0;entryX=0.33;entryY=1;entryDx=0;entryDy=0;entryPerimeter=0;fontSize=6;endArrow=none;endFill=0;" parent="30" source="31" target="31" edge="1">
                    <mxGeometry relative="1" as="geometry"/>
                </mxCell>
                <mxCell id="33" style="edgeStyle=none;html=1;exitX=0.66;exitY=0;exitDx=0;exitDy=0;exitPerimeter=0;entryX=0.66;entryY=1;entryDx=0;entryDy=0;entryPerimeter=0;fontSize=6;endArrow=none;endFill=0;" parent="30" source="31" target="31" edge="1">
                    <mxGeometry relative="1" as="geometry"/>
                </mxCell>
                <mxCell id="35" value="&lt;p style=&quot;line-height: 70%;&quot;&gt;&lt;font style=&quot;font-size: 6px;&quot;&gt;{[16:31]}&lt;/font&gt;&lt;/p&gt;" style="text;strokeColor=none;fillColor=none;align=center;verticalAlign=middle;rounded=0;whiteSpace=wrap;html=1;flipV=0;flipH=0;imageAspect=1;imageAlign=left;imageVerticalAlign=middle;glass=0;" parent="30" vertex="1">
                    <mxGeometry x="48" y="3" width="23" height="8" as="geometry"/>
                </mxCell>
                <mxCell id="116" value="&lt;p style=&quot;line-height: 70%;&quot;&gt;&lt;font style=&quot;font-size: 6px;&quot;&gt;{[32:39],00}&lt;/font&gt;&lt;/p&gt;" style="text;strokeColor=none;fillColor=none;align=center;verticalAlign=middle;rounded=0;whiteSpace=wrap;html=1;flipV=0;flipH=0;imageAspect=1;imageAlign=left;imageVerticalAlign=middle;glass=0;" vertex="1" parent="30">
                    <mxGeometry y="3" width="36" height="8" as="geometry"/>
                </mxCell>
                <mxCell id="117" value="&lt;p style=&quot;line-height: 70%;&quot;&gt;&lt;font style=&quot;font-size: 6px;&quot;&gt;{[0:15]}&lt;/font&gt;&lt;/p&gt;" style="text;strokeColor=none;fillColor=none;align=center;verticalAlign=middle;rounded=0;whiteSpace=wrap;html=1;flipV=0;flipH=0;imageAspect=1;imageAlign=left;imageVerticalAlign=middle;glass=0;" vertex="1" parent="30">
                    <mxGeometry x="88" y="3" width="23" height="8" as="geometry"/>
                </mxCell>
                <mxCell id="42" style="html=1;fontSize=6;endArrow=classic;endFill=1;entryX=0;entryY=0.5;entryDx=0;entryDy=0;spacing=0;endSize=1;startArrow=none;" parent="1" source="93" target="50" edge="1">
                    <mxGeometry relative="1" as="geometry">
                        <mxPoint x="480" y="299" as="targetPoint"/>
                    </mxGeometry>
                </mxCell>
                <mxCell id="37" value="merge" style="rounded=0;whiteSpace=wrap;html=1;glass=0;fontSize=6;" parent="1" vertex="1">
                    <mxGeometry x="388" y="285" width="37" height="27" as="geometry"/>
                </mxCell>
                <mxCell id="43" value="&lt;span style=&quot;font-size: 6px;&quot;&gt;pattern_gen(32 bit)&lt;/span&gt;" style="text;strokeColor=none;fillColor=none;align=center;verticalAlign=middle;rounded=0;whiteSpace=wrap;html=1;flipV=1;flipH=0;" parent="1" vertex="1">
                    <mxGeometry x="441" y="288" width="59" height="10" as="geometry"/>
                </mxCell>
                <mxCell id="44" value="&lt;p style=&quot;line-height: 0%;&quot;&gt;phase3&lt;/p&gt;" style="text;html=1;strokeColor=none;fillColor=none;align=center;verticalAlign=middle;whiteSpace=wrap;rounded=0;glass=0;fontSize=6;" parent="1" vertex="1">
                    <mxGeometry x="173" y="249" width="39" height="25" as="geometry"/>
                </mxCell>
                <mxCell id="45" value="&lt;p style=&quot;line-height: 0%;&quot;&gt;phase2&lt;/p&gt;" style="text;html=1;strokeColor=none;fillColor=none;align=center;verticalAlign=middle;whiteSpace=wrap;rounded=0;glass=0;fontSize=6;" parent="1" vertex="1">
                    <mxGeometry x="214" y="249" width="39" height="25" as="geometry"/>
                </mxCell>
                <mxCell id="47" value="&lt;p style=&quot;line-height: 0%;&quot;&gt;phase1&lt;/p&gt;" style="text;html=1;strokeColor=none;fillColor=none;align=center;verticalAlign=middle;whiteSpace=wrap;rounded=0;glass=0;fontSize=6;" parent="1" vertex="1">
                    <mxGeometry x="255" y="249" width="39" height="25" as="geometry"/>
                </mxCell>
                <mxCell id="58" style="edgeStyle=none;html=1;entryX=0;entryY=0.5;entryDx=0;entryDy=0;fontSize=6;endArrow=classic;endFill=1;endSize=1;" parent="1" source="50" target="54" edge="1">
                    <mxGeometry relative="1" as="geometry"/>
                </mxCell>
                <mxCell id="50" value="FIFO" style="rounded=0;whiteSpace=wrap;html=1;glass=0;fontSize=6;fillColor=#dae8fc;strokeColor=#6c8ebf;" parent="1" vertex="1">
                    <mxGeometry x="501" y="238" width="104" height="121" as="geometry"/>
                </mxCell>
                <mxCell id="51" value="AXI_interface&lt;br&gt;slave" style="text;html=1;strokeColor=none;fillColor=none;align=center;verticalAlign=middle;whiteSpace=wrap;rounded=0;glass=0;fontSize=6;" parent="1" vertex="1">
                    <mxGeometry x="501" y="255" width="55" height="27" as="geometry"/>
                </mxCell>
                <mxCell id="52" value="AXI_interface&lt;br&gt;master" style="text;html=1;strokeColor=none;fillColor=none;align=center;verticalAlign=middle;whiteSpace=wrap;rounded=0;glass=0;fontSize=6;" parent="1" vertex="1">
                    <mxGeometry x="550" y="255" width="55" height="27" as="geometry"/>
                </mxCell>
                <mxCell id="53" value="AXI_interface&lt;br&gt;master" style="text;html=1;strokeColor=none;fillColor=none;align=center;verticalAlign=middle;whiteSpace=wrap;rounded=0;glass=0;fontSize=6;" parent="1" vertex="1">
                    <mxGeometry x="386" y="257" width="55" height="27" as="geometry"/>
                </mxCell>
                <mxCell id="54" value="aurora8b/10b_logic&lt;br&gt;_core1" style="rounded=0;whiteSpace=wrap;html=1;glass=0;fontSize=6;fillColor=#f8cecc;strokeColor=#b85450;" parent="1" vertex="1">
                    <mxGeometry x="650" y="238" width="104" height="121" as="geometry"/>
                </mxCell>
                <mxCell id="56" value="AXI_interface&lt;br&gt;slave" style="text;html=1;strokeColor=none;fillColor=none;align=center;verticalAlign=middle;whiteSpace=wrap;rounded=0;glass=0;fontSize=6;" parent="1" vertex="1">
                    <mxGeometry x="650" y="255" width="55" height="27" as="geometry"/>
                </mxCell>
                <mxCell id="59" value="312.5 MHz" style="text;html=1;strokeColor=none;fillColor=none;align=center;verticalAlign=middle;whiteSpace=wrap;rounded=0;glass=0;fontSize=6;" parent="1" vertex="1">
                    <mxGeometry x="393" y="339" width="48" height="20" as="geometry"/>
                </mxCell>
                <mxCell id="60" value="160 MHz" style="text;html=1;strokeColor=none;fillColor=none;align=center;verticalAlign=middle;whiteSpace=wrap;rounded=0;glass=0;fontSize=6;" parent="1" vertex="1">
                    <mxGeometry x="561" y="339" width="43" height="20" as="geometry"/>
                </mxCell>
                <mxCell id="61" value="160 MHz" style="text;html=1;strokeColor=none;fillColor=none;align=center;verticalAlign=middle;whiteSpace=wrap;rounded=0;glass=0;fontSize=6;" parent="1" vertex="1">
                    <mxGeometry x="651" y="339" width="43" height="20" as="geometry"/>
                </mxCell>
                <mxCell id="62" value="312.5 MHz" style="text;html=1;strokeColor=none;fillColor=none;align=center;verticalAlign=middle;whiteSpace=wrap;rounded=0;glass=0;fontSize=6;" parent="1" vertex="1">
                    <mxGeometry x="501" y="339" width="48" height="20" as="geometry"/>
                </mxCell>
                <mxCell id="63" value="時域同步" style="text;html=1;strokeColor=none;fillColor=none;align=center;verticalAlign=middle;whiteSpace=wrap;rounded=0;glass=0;fontSize=6;" parent="1" vertex="1">
                    <mxGeometry x="531.5" y="304" width="43" height="20" as="geometry"/>
                </mxCell>
                <mxCell id="64" value="&lt;p style=&quot;line-height: 0%;&quot;&gt;Pattern_check&lt;/p&gt;" style="rounded=0;whiteSpace=wrap;html=1;spacingTop=100;fillColor=#dae8fc;strokeColor=#6c8ebf;" parent="1" vertex="1">
                    <mxGeometry x="430.5" y="420" width="253.5" height="117" as="geometry"/>
                </mxCell>
                <mxCell id="75" style="edgeStyle=none;html=1;entryX=0;entryY=0.5;entryDx=0;entryDy=0;fontSize=6;startArrow=none;startFill=0;endArrow=classic;endFill=1;endSize=1;" parent="1" source="65" target="66" edge="1">
                    <mxGeometry relative="1" as="geometry"/>
                </mxCell>
                <mxCell id="65" value="aurora8b/10b_logic&lt;br&gt;_core2" style="rounded=0;whiteSpace=wrap;html=1;glass=0;fontSize=6;fillColor=#f8cecc;strokeColor=#b85450;" parent="1" vertex="1">
                    <mxGeometry x="105" y="418" width="104" height="121" as="geometry"/>
                </mxCell>
                <mxCell id="76" style="edgeStyle=none;html=1;entryX=0;entryY=0.5;entryDx=0;entryDy=0;fontSize=6;startArrow=none;startFill=0;endArrow=classic;endFill=1;endSize=1;" parent="1" source="85" target="79" edge="1">
                    <mxGeometry relative="1" as="geometry"/>
                </mxCell>
                <mxCell id="66" value="FIFO" style="rounded=0;whiteSpace=wrap;html=1;glass=0;fontSize=6;fillColor=#dae8fc;strokeColor=#6c8ebf;" parent="1" vertex="1">
                    <mxGeometry x="267" y="418" width="104" height="121" as="geometry"/>
                </mxCell>
                <mxCell id="67" value="AXI_interface&lt;br&gt;slave" style="text;html=1;strokeColor=none;fillColor=none;align=center;verticalAlign=middle;whiteSpace=wrap;rounded=0;glass=0;fontSize=6;" parent="1" vertex="1">
                    <mxGeometry x="267" y="437" width="55" height="27" as="geometry"/>
                </mxCell>
                <mxCell id="68" value="AXI_interface&lt;br&gt;master" style="text;html=1;strokeColor=none;fillColor=none;align=center;verticalAlign=middle;whiteSpace=wrap;rounded=0;glass=0;fontSize=6;" parent="1" vertex="1">
                    <mxGeometry x="316" y="437" width="55" height="27" as="geometry"/>
                </mxCell>
                <mxCell id="69" value="時域同步" style="text;html=1;strokeColor=none;fillColor=none;align=center;verticalAlign=middle;whiteSpace=wrap;rounded=0;glass=0;fontSize=6;" parent="1" vertex="1">
                    <mxGeometry x="297.5" y="482" width="43" height="20" as="geometry"/>
                </mxCell>
                <mxCell id="70" value="312.5 MHz" style="text;html=1;strokeColor=none;fillColor=none;align=center;verticalAlign=middle;whiteSpace=wrap;rounded=0;glass=0;fontSize=6;" parent="1" vertex="1">
                    <mxGeometry x="323" y="519" width="48" height="20" as="geometry"/>
                </mxCell>
                <mxCell id="71" value="160 MHz" style="text;html=1;strokeColor=none;fillColor=none;align=center;verticalAlign=middle;whiteSpace=wrap;rounded=0;glass=0;fontSize=6;" parent="1" vertex="1">
                    <mxGeometry x="267" y="519" width="43" height="20" as="geometry"/>
                </mxCell>
                <mxCell id="72" value="160 MHz" style="text;html=1;strokeColor=none;fillColor=none;align=center;verticalAlign=middle;whiteSpace=wrap;rounded=0;glass=0;fontSize=6;" parent="1" vertex="1">
                    <mxGeometry x="166" y="519" width="43" height="20" as="geometry"/>
                </mxCell>
                <mxCell id="73" value="AXI_interface&lt;br&gt;master" style="text;html=1;strokeColor=none;fillColor=none;align=center;verticalAlign=middle;whiteSpace=wrap;rounded=0;glass=0;fontSize=6;" parent="1" vertex="1">
                    <mxGeometry x="154" y="437" width="55" height="27" as="geometry"/>
                </mxCell>
                <mxCell id="77" value="&lt;span style=&quot;font-size: 6px;&quot;&gt;pattern_recv(32 bit)&lt;/span&gt;" style="text;strokeColor=none;fillColor=none;align=center;verticalAlign=middle;rounded=0;whiteSpace=wrap;html=1;flipV=1;flipH=0;" parent="1" vertex="1">
                    <mxGeometry x="371" y="467" width="59" height="10" as="geometry"/>
                </mxCell>
                <mxCell id="78" value="312.5 MHz" style="text;html=1;strokeColor=none;fillColor=none;align=center;verticalAlign=middle;whiteSpace=wrap;rounded=0;glass=0;fontSize=6;" parent="1" vertex="1">
                    <mxGeometry x="425" y="517" width="48" height="20" as="geometry"/>
                </mxCell>
                <mxCell id="83" style="edgeStyle=orthogonalEdgeStyle;html=1;entryX=0;entryY=0.5;entryDx=0;entryDy=0;fontSize=6;startArrow=none;startFill=0;endArrow=classic;endFill=1;endSize=1;exitX=1;exitY=0.5;exitDx=0;exitDy=0;curved=1;" parent="1" source="79" target="80" edge="1">
                    <mxGeometry relative="1" as="geometry"/>
                </mxCell>
                <mxCell id="84" style="edgeStyle=orthogonalEdgeStyle;html=1;entryX=0;entryY=0.5;entryDx=0;entryDy=0;fontSize=6;startArrow=none;startFill=0;endArrow=classic;endFill=1;endSize=1;exitX=1;exitY=0.5;exitDx=0;exitDy=0;curved=1;" parent="1" source="79" target="81" edge="1">
                    <mxGeometry relative="1" as="geometry"/>
                </mxCell>
                <mxCell id="79" value="fragmentation" style="rounded=0;whiteSpace=wrap;html=1;glass=0;fontSize=6;" parent="1" vertex="1">
                    <mxGeometry x="468" y="465" width="42" height="27" as="geometry"/>
                </mxCell>
                <mxCell id="111" style="edgeStyle=orthogonalEdgeStyle;html=1;entryX=0;entryY=0.5;entryDx=0;entryDy=0;fontSize=6;startArrow=none;startFill=0;endArrow=classic;endFill=1;endSize=1;curved=1;" parent="1" source="80" target="107" edge="1">
                    <mxGeometry relative="1" as="geometry"/>
                </mxCell>
                <mxCell id="80" value="lane_1" style="rounded=0;whiteSpace=wrap;html=1;glass=0;fontSize=6;flipH=1;flipV=1;" parent="1" vertex="1">
                    <mxGeometry x="549.5" y="442" width="42" height="27" as="geometry"/>
                </mxCell>
                <mxCell id="112" style="edgeStyle=orthogonalEdgeStyle;html=1;entryX=0;entryY=0.5;entryDx=0;entryDy=0;fontSize=6;startArrow=none;startFill=0;endArrow=classic;endFill=1;endSize=1;curved=1;" parent="1" source="81" target="107" edge="1">
                    <mxGeometry relative="1" as="geometry"/>
                </mxCell>
                <mxCell id="81" value="lane_2" style="rounded=0;whiteSpace=wrap;html=1;glass=0;fontSize=6;flipH=1;flipV=1;" parent="1" vertex="1">
                    <mxGeometry x="549" y="490" width="42" height="27" as="geometry"/>
                </mxCell>
                <mxCell id="87" value="" style="edgeStyle=none;html=1;entryX=0;entryY=0.5;entryDx=0;entryDy=0;fontSize=6;startArrow=none;startFill=0;endArrow=none;endFill=1;endSize=1;" parent="1" source="66" target="85" edge="1">
                    <mxGeometry relative="1" as="geometry">
                        <mxPoint x="371" y="478.5" as="sourcePoint"/>
                        <mxPoint x="468" y="478.5" as="targetPoint"/>
                    </mxGeometry>
                </mxCell>
                <mxCell id="92" style="edgeStyle=orthogonalEdgeStyle;curved=1;html=1;entryX=0.5;entryY=0;entryDx=0;entryDy=0;fontSize=6;startArrow=none;startFill=0;endArrow=classic;endFill=1;endSize=1;" parent="1" source="85" target="91" edge="1">
                    <mxGeometry relative="1" as="geometry"/>
                </mxCell>
                <mxCell id="85" value="" style="ellipse;whiteSpace=wrap;html=1;glass=0;strokeColor=none;fontSize=6;gradientColor=none;fillColor=#000000;" parent="1" vertex="1">
                    <mxGeometry x="439" y="473.5" width="10" height="10" as="geometry"/>
                </mxCell>
                <mxCell id="91" value="pattern_check.txt" style="text;strokeColor=none;fillColor=none;align=center;verticalAlign=middle;whiteSpace=wrap;rounded=0;glass=0;fontSize=6;spacing=0;" parent="1" vertex="1">
                    <mxGeometry x="370.5" y="550" width="60" height="15" as="geometry"/>
                </mxCell>
                <mxCell id="94" value="" style="html=1;fontSize=6;endArrow=none;endFill=1;entryX=0;entryY=0.5;entryDx=0;entryDy=0;spacing=0;endSize=1;" parent="1" source="37" target="93" edge="1">
                    <mxGeometry relative="1" as="geometry">
                        <mxPoint x="501" y="298.5" as="targetPoint"/>
                        <mxPoint x="425" y="298.5" as="sourcePoint"/>
                    </mxGeometry>
                </mxCell>
                <mxCell id="96" style="edgeStyle=orthogonalEdgeStyle;curved=1;html=1;entryX=0.5;entryY=0;entryDx=0;entryDy=0;fontSize=6;startArrow=none;startFill=0;endArrow=classic;endFill=1;endSize=1;" parent="1" source="93" target="95" edge="1">
                    <mxGeometry relative="1" as="geometry"/>
                </mxCell>
                <mxCell id="93" value="" style="ellipse;whiteSpace=wrap;html=1;glass=0;strokeColor=none;fontSize=6;gradientColor=none;fillColor=#000000;" parent="1" vertex="1">
                    <mxGeometry x="429" y="293.5" width="10" height="10" as="geometry"/>
                </mxCell>
                <mxCell id="95" value="pattern_gen.txt" style="text;strokeColor=none;fillColor=none;align=center;verticalAlign=middle;whiteSpace=wrap;rounded=0;glass=0;fontSize=6;spacing=0;" parent="1" vertex="1">
                    <mxGeometry x="443" y="376" width="60" height="15" as="geometry"/>
                </mxCell>
                <mxCell id="98" value="AXI_interface&lt;br&gt;slave" style="text;html=1;strokeColor=none;fillColor=none;align=center;verticalAlign=middle;whiteSpace=wrap;rounded=0;glass=0;fontSize=6;" parent="1" vertex="1">
                    <mxGeometry x="430" y="437" width="55" height="27" as="geometry"/>
                </mxCell>
                <mxCell id="99" style="edgeStyle=none;html=1;entryX=0;entryY=0.5;entryDx=0;entryDy=0;fontSize=6;endArrow=classic;endFill=1;endSize=1;" parent="1" edge="1">
                    <mxGeometry relative="1" as="geometry">
                        <mxPoint x="754" y="298.41999999999996" as="sourcePoint"/>
                        <mxPoint x="799" y="298.41999999999996" as="targetPoint"/>
                    </mxGeometry>
                </mxCell>
                <mxCell id="100" value="TX[0:1]" style="text;html=1;strokeColor=none;fillColor=none;align=center;verticalAlign=middle;whiteSpace=wrap;rounded=0;glass=0;fontSize=6;spacing=0;" parent="1" vertex="1">
                    <mxGeometry x="735" y="285.5" width="19" height="15" as="geometry"/>
                </mxCell>
                <mxCell id="102" style="edgeStyle=none;html=1;entryX=0;entryY=0.5;entryDx=0;entryDy=0;fontSize=6;endArrow=classic;endFill=1;endSize=1;" parent="1" target="65" edge="1">
                    <mxGeometry relative="1" as="geometry">
                        <mxPoint x="60" y="478" as="sourcePoint"/>
                        <mxPoint x="105" y="478.34" as="targetPoint"/>
                    </mxGeometry>
                </mxCell>
                <mxCell id="103" value="RX[0:1]" style="text;html=1;strokeColor=none;fillColor=none;align=center;verticalAlign=middle;whiteSpace=wrap;rounded=0;glass=0;fontSize=6;spacing=0;" parent="1" vertex="1">
                    <mxGeometry x="105" y="465" width="19" height="15" as="geometry"/>
                </mxCell>
                <mxCell id="107" value="ILA" style="rounded=0;whiteSpace=wrap;html=1;glass=0;fontSize=6;flipH=1;flipV=1;" parent="1" vertex="1">
                    <mxGeometry x="623" y="465" width="42" height="27" as="geometry"/>
                </mxCell>
                <mxCell id="120" value="" style="endArrow=classic;html=1;entryX=0;entryY=0.5;entryDx=0;entryDy=0;exitX=1;exitY=0.5;exitDx=0;exitDy=0;exitPerimeter=0;endSize=1;" edge="1" parent="1" source="10" target="4">
                    <mxGeometry width="50" height="50" relative="1" as="geometry">
                        <mxPoint x="294" y="252" as="sourcePoint"/>
                        <mxPoint x="344" y="202" as="targetPoint"/>
                    </mxGeometry>
                </mxCell>
                <mxCell id="121" value="" style="endArrow=classic;html=1;entryX=0;entryY=0.5;entryDx=0;entryDy=0;exitX=1;exitY=0.5;exitDx=0;exitDy=0;exitPerimeter=0;endSize=1;" edge="1" parent="1" target="3">
                    <mxGeometry width="50" height="50" relative="1" as="geometry">
                        <mxPoint x="294" y="312" as="sourcePoint"/>
                        <mxPoint x="309" y="312" as="targetPoint"/>
                    </mxGeometry>
                </mxCell>
                <mxCell id="122" value="3.2Gbps" style="text;html=1;strokeColor=none;fillColor=none;align=center;verticalAlign=middle;whiteSpace=wrap;rounded=0;glass=0;fontSize=6;spacing=0;" vertex="1" parent="1">
                    <mxGeometry x="766" y="285.5" width="19" height="15" as="geometry"/>
                </mxCell>
                <mxCell id="124" value="3.2Gbps" style="text;html=1;strokeColor=none;fillColor=none;align=center;verticalAlign=middle;whiteSpace=wrap;rounded=0;glass=0;fontSize=6;spacing=0;" vertex="1" parent="1">
                    <mxGeometry x="75" y="464.5" width="19" height="15" as="geometry"/>
                </mxCell>
            </root>
        </mxGraphModel>
    </diagram>
</mxfile>